<svg xmlns="http://www.w3.org/2000/svg" width="375" viewBox="0 0 375 375" height="375" version="1.0"><defs><clipPath id="a"><path d="M 76.628906 221.109375 L 298.367188 221.109375 L 298.367188 337.476562 L 76.628906 337.476562 Z M 76.628906 221.109375"/></clipPath><clipPath id="b"><path d="M 148 37.5 L 211 37.5 L 211 192 L 148 192 Z M 148 37.5"/></clipPath></defs><g clip-path="url(#a)"><path fill="#6A7467" d="M 193.679688 279.597656 C 193.621094 279.550781 193.566406 279.511719 193.507812 279.46875 C 193.445312 279.109375 193.425781 278.738281 193.3125 278.394531 C 193.0625 277.648438 192.421875 277.226562 191.777344 277.582031 C 191.324219 277.832031 191.097656 278.566406 190.886719 279.128906 C 190.808594 279.339844 190.972656 279.757812 191.164062 279.933594 C 191.667969 280.40625 192.25 280.796875 192.800781 281.222656 C 193.09375 280.679688 193.386719 280.136719 193.679688 279.597656 Z M 92.710938 278.699219 C 92.695312 278.570312 92.679688 278.4375 92.664062 278.308594 C 91.125 278.269531 89.582031 278.175781 88.046875 278.230469 C 87.710938 278.246094 87.394531 278.800781 87.070312 279.101562 C 87.414062 279.378906 87.722656 279.804688 88.109375 279.894531 C 88.660156 280.023438 89.304688 280.03125 89.847656 279.871094 C 90.832031 279.578125 92.007812 279.628906 92.710938 278.699219 Z M 173.535156 247.8125 C 173.554688 245.996094 172.988281 245.195312 171.914062 245.1875 C 170.976562 245.179688 170.429688 245.78125 170.429688 246.832031 C 170.425781 247.996094 171.355469 248.953125 172.515625 248.949219 C 173.535156 248.945312 173.527344 248.195312 173.535156 247.8125 Z M 154.203125 320.539062 C 153.34375 320.714844 152.765625 320.734375 152.277344 320.957031 C 151.539062 321.292969 150.960938 321.882812 151.226562 322.785156 C 151.472656 323.632812 152.222656 323.851562 153 323.730469 C 153.535156 323.648438 154.046875 323.394531 154.546875 323.164062 C 155.289062 322.824219 155.828125 322.175781 155.519531 321.421875 C 155.328125 320.96875 154.546875 320.757812 154.203125 320.539062 Z M 216.042969 244.480469 C 215.875 244.585938 215.210938 244.792969 215.164062 245.097656 C 215.09375 245.523438 215.359375 246.273438 215.699219 246.441406 C 216.726562 246.953125 217.84375 247.296875 218.957031 247.585938 C 219.21875 247.652344 219.726562 247.316406 219.886719 247.035156 C 220.007812 246.820312 219.847656 246.320312 219.648438 246.078125 C 218.820312 245.050781 217.6875 244.59375 216.042969 244.480469 Z M 237.21875 290.3125 C 238.328125 290.28125 240.8125 288.257812 240.914062 287.347656 C 240.941406 287.113281 240.5625 286.65625 240.308594 286.605469 C 239.308594 286.398438 236.925781 287.558594 236.5 288.464844 C 236.320312 288.851562 236.261719 289.410156 236.402344 289.792969 C 236.507812 290.074219 237.03125 290.199219 237.21875 290.3125 Z M 103.046875 256.492188 C 102.210938 256.5 101.632812 257.101562 101.617188 257.984375 C 101.597656 259.054688 102.988281 260.285156 104.191406 260.226562 C 104.929688 260.1875 105.492188 259.839844 105.496094 259.027344 C 105.5 257.746094 104.246094 256.480469 103.046875 256.492188 Z M 227.089844 242.757812 C 227.125 242.894531 227.183594 243.339844 227.371094 243.71875 C 227.652344 244.300781 228.246094 244.613281 228.695312 244.082031 C 229.367188 243.304688 230.003906 242.417969 230.355469 241.464844 C 230.6875 240.570312 229.921875 239.851562 228.941406 239.871094 C 227.894531 239.894531 227.136719 240.960938 227.089844 242.757812 Z M 119.773438 246.066406 C 119.582031 245.144531 119.398438 244.472656 118.554688 244.171875 C 117.714844 243.871094 117.054688 244.359375 116.859375 244.992188 C 116.582031 245.894531 116.453125 246.933594 116.613281 247.855469 C 116.785156 248.871094 117.855469 249.082031 118.523438 248.277344 C 119.054688 247.632812 119.363281 246.8125 119.773438 246.066406 Z M 226.730469 279.984375 C 226.609375 279.992188 226.488281 280.003906 226.363281 280.015625 C 226.363281 280.464844 226.296875 280.929688 226.378906 281.363281 C 226.582031 282.4375 226.839844 283.5 227.09375 284.5625 C 227.253906 285.226562 227.398438 285.902344 227.636719 286.539062 C 227.890625 287.214844 228.445312 287.789062 229.132812 287.351562 C 229.511719 287.113281 229.578125 286.320312 229.695312 285.761719 C 229.738281 285.550781 229.539062 285.285156 229.425781 285.054688 C 228.648438 283.496094 227.863281 281.9375 227.074219 280.382812 C 226.996094 280.230469 226.847656 280.117188 226.730469 279.984375 Z M 142.242188 293.558594 C 142.8125 294.472656 143.253906 295.390625 143.902344 296.121094 C 144.171875 296.421875 145.050781 296.5625 145.363281 296.347656 C 145.75 296.085938 146.089844 295.339844 146.011719 294.878906 C 145.875 294.078125 145.542969 293.210938 145.015625 292.609375 C 144.644531 292.183594 143.796875 291.953125 143.203125 292.019531 C 142.875 292.054688 142.636719 292.882812 142.242188 293.558594 Z M 169.339844 265.039062 C 169.269531 264.78125 169.179688 264.351562 169.046875 263.9375 C 168.75 263.03125 167.96875 262.535156 167.179688 262.765625 C 166.566406 262.941406 165.851562 263.65625 165.6875 264.269531 C 165.527344 264.859375 165.898438 265.699219 166.253906 266.292969 C 166.617188 266.890625 167.175781 267.488281 168.078125 267.113281 C 168.929688 266.761719 169.296875 266.109375 169.339844 265.039062 Z M 124.691406 309.898438 C 122.457031 309.066406 120.679688 309.308594 119.007812 310.15625 C 118.613281 310.355469 118.179688 311.269531 118.332031 311.566406 C 118.550781 312 119.328125 312.457031 119.792969 312.390625 C 120.9375 312.226562 122.074219 311.851562 123.136719 311.386719 C 123.671875 311.15625 124.039062 310.542969 124.691406 309.898438 Z M 160.921875 284.296875 C 160.941406 283.027344 159.980469 281.992188 158.761719 281.972656 C 157.855469 281.957031 156.957031 282.941406 156.929688 283.972656 C 156.902344 285.109375 157.933594 286.277344 159 286.308594 C 160.015625 286.339844 160.910156 285.40625 160.921875 284.296875 Z M 171.242188 285.625 C 170.019531 285.015625 167.082031 285.703125 166.0625 286.902344 C 165.757812 287.261719 165.550781 287.949219 165.6875 288.355469 C 165.796875 288.683594 166.484375 288.957031 166.9375 288.992188 C 168.683594 289.128906 170.738281 287.5 171.242188 285.625 Z M 88.820312 287.234375 C 87.558594 287.242188 86.554688 288.105469 86.582031 289.167969 C 86.605469 290.191406 87.601562 291.023438 88.789062 291.015625 C 90.085938 291.007812 91.421875 290.054688 91.429688 289.132812 C 91.441406 288.210938 90.089844 287.226562 88.820312 287.234375 Z M 223.109375 286.625 C 223.101562 285.359375 222.277344 284.417969 221.15625 284.402344 C 220.207031 284.390625 219.15625 285.585938 219.152344 286.679688 C 219.148438 288 220.191406 289.257812 221.265625 289.222656 C 222.328125 289.191406 223.121094 288.074219 223.109375 286.625 Z M 187.464844 324.359375 C 187.453125 325.539062 188.519531 326.515625 189.863281 326.550781 C 191.203125 326.589844 192.332031 325.851562 192.359375 324.921875 C 192.402344 323.703125 190.949219 322.445312 189.488281 322.4375 C 188.210938 322.425781 187.480469 323.121094 187.464844 324.359375 Z M 189.734375 244.277344 C 189.335938 243.097656 189.027344 242.136719 188.679688 241.1875 C 188.386719 240.390625 187.671875 240.070312 187.007812 240.386719 C 186.523438 240.613281 185.980469 241.335938 185.988281 241.828125 C 186.003906 242.816406 186.308594 243.820312 186.625 244.777344 C 186.910156 245.644531 187.621094 246.359375 188.527344 245.984375 C 189.066406 245.761719 189.335938 244.878906 189.734375 244.277344 Z M 129.566406 238.542969 C 128.5 238.53125 127.75 239.25 127.730469 240.296875 C 127.710938 241.609375 129.296875 243.132812 130.746094 243.191406 C 131.636719 243.222656 132.347656 242.464844 132.355469 241.472656 C 132.371094 240.117188 130.886719 238.558594 129.566406 238.542969 Z M 163.105469 329.289062 C 164.339844 329.300781 165.496094 328.511719 165.519531 327.632812 C 165.550781 326.433594 164.035156 324.886719 162.8125 324.871094 C 161.574219 324.859375 160.554688 325.78125 160.527344 326.941406 C 160.503906 328.199219 161.679688 329.273438 163.105469 329.289062 Z M 105.925781 272.789062 C 105.386719 271.691406 105.023438 270.746094 104.484375 269.910156 C 104.027344 269.210938 103.246094 268.96875 102.453125 269.375 C 101.667969 269.777344 101.21875 270.515625 101.441406 271.378906 C 101.65625 272.214844 101.960938 273.125 102.515625 273.738281 C 102.953125 274.226562 103.90625 274.636719 104.484375 274.492188 C 105.035156 274.355469 105.398438 273.460938 105.925781 272.789062 Z M 117.332031 300.75 C 115.972656 300.746094 115.097656 301.59375 115.097656 302.917969 C 115.09375 304.152344 116.191406 305.132812 117.597656 305.15625 C 118.933594 305.179688 120.355469 304.21875 120.378906 303.28125 C 120.40625 302.136719 118.742188 300.753906 117.332031 300.75 Z M 153.402344 308.914062 C 153.414062 307.269531 152.375 306.074219 150.945312 306.089844 C 149.800781 306.105469 148.777344 307.195312 148.753906 308.425781 C 148.714844 310.078125 149.792969 311.375 151.207031 311.378906 C 152.578125 311.382812 153.390625 310.46875 153.402344 308.914062 Z M 138.15625 324.789062 C 136.894531 324.042969 135.710938 323.246094 134.441406 322.628906 C 133.59375 322.210938 132.542969 322.152344 131.875 322.921875 C 131.480469 323.375 131.136719 324.402344 131.378906 324.773438 C 131.832031 325.464844 132.699219 325.917969 133.453125 326.375 C 133.773438 326.570312 134.234375 326.535156 134.636719 326.585938 C 136.203125 326.785156 137.59375 326.152344 138.15625 324.789062 Z M 247.910156 275.679688 C 247.921875 274.246094 247.097656 273.347656 245.746094 273.308594 C 244.414062 273.277344 243.105469 274.65625 243.066406 276.144531 C 243.03125 277.484375 243.890625 278.777344 244.835938 278.820312 C 246.339844 278.882812 247.890625 277.296875 247.910156 275.679688 Z M 242.445312 237.019531 C 242.660156 237.707031 242.769531 238.457031 243.121094 239.074219 C 243.972656 240.582031 245.859375 240.671875 246.503906 239.191406 C 246.855469 238.382812 246.929688 237.34375 246.808594 236.449219 C 246.601562 234.886719 245.65625 234.1875 244.382812 234.351562 C 243.234375 234.496094 242.578125 235.457031 242.445312 237.019531 Z M 119.441406 279.726562 C 120.957031 279.738281 122.503906 278.722656 122.585938 277.667969 C 122.664062 276.664062 121.339844 275.367188 119.925781 275.113281 C 118.816406 274.917969 117.683594 275.039062 117.128906 276.109375 C 116.804688 276.734375 116.703125 277.6875 116.929688 278.34375 C 117.300781 279.398438 118.324219 279.769531 119.441406 279.726562 Z M 229.835938 294.539062 C 228.246094 294.53125 227.316406 295.460938 227.308594 297.054688 C 227.300781 298.640625 228.527344 300.027344 229.949219 300.042969 C 231.183594 300.058594 232.363281 298.707031 232.382812 297.25 C 232.40625 295.722656 231.300781 294.546875 229.835938 294.539062 Z M 213.40625 257.148438 C 215.097656 257.140625 216.0625 256.304688 216.035156 254.867188 C 216.011719 253.339844 214.378906 252.035156 212.535156 252.066406 C 211.199219 252.089844 210.035156 253.261719 210.085938 254.542969 C 210.132812 255.914062 211.71875 257.15625 213.40625 257.148438 Z M 176.683594 302.917969 C 176.589844 302.878906 176.496094 302.839844 176.402344 302.796875 C 176.402344 302.429688 176.441406 302.058594 176.398438 301.695312 C 176.25 300.457031 175.328125 299.496094 174.226562 299.40625 C 172.761719 299.285156 171.925781 299.847656 171.5 301.238281 C 171.136719 302.433594 171.8125 304.066406 172.945312 304.75 C 173.804688 305.265625 174.816406 305.652344 175.617188 305.023438 C 176.179688 304.585938 176.339844 303.640625 176.683594 302.917969 Z M 218.304688 275.496094 C 219.140625 275.203125 220.03125 275.042969 220.753906 274.609375 C 221.769531 274 221.78125 273.328125 221.011719 272.417969 C 220.078125 271.316406 218.925781 270.574219 217.496094 270.292969 C 216.445312 270.089844 215.199219 270.777344 214.820312 271.78125 C 214.417969 272.832031 214.753906 274.039062 215.753906 274.566406 C 216.515625 274.96875 217.378906 275.167969 218.304688 275.496094 Z M 204.03125 314.703125 C 202.277344 315.164062 200.589844 315.511719 198.972656 316.058594 C 197.71875 316.480469 197.308594 317.34375 197.703125 318.378906 C 198.09375 319.425781 199.058594 319.480469 199.9375 319.296875 C 201.367188 318.996094 202.773438 318.566406 204.179688 318.140625 C 204.511719 318.039062 204.871094 317.808594 205.070312 317.527344 C 205.492188 316.9375 205.820312 316.28125 206.1875 315.652344 C 205.484375 315.339844 204.773438 315.027344 204.03125 314.703125 Z M 83.019531 236.351562 C 83.019531 238.320312 84.148438 239.671875 85.785156 239.65625 C 87.226562 239.644531 88.539062 237.992188 88.527344 236.210938 C 88.519531 234.550781 87.1875 233.03125 85.757812 233.050781 C 84.292969 233.070312 83.019531 234.601562 83.019531 236.351562 Z M 143.207031 255.570312 C 143.207031 253.9375 142.085938 252.425781 140.628906 252.28125 C 138.863281 252.105469 137.667969 252.925781 137.320312 254.628906 C 137 256.195312 137.777344 257.34375 138.929688 258.257812 C 139.714844 258.882812 140.640625 259.226562 141.605469 258.703125 C 142.734375 258.089844 143.257812 257.070312 143.207031 255.570312 Z M 160.753906 306.289062 C 162.328125 306.28125 163.398438 305.097656 163.09375 303.546875 C 162.742188 301.773438 161.753906 300.457031 159.929688 299.9375 C 157.152344 299.144531 156.703125 299.542969 156.9375 302.390625 C 157.082031 304.15625 159.191406 306.683594 160.753906 306.289062 Z M 196.335938 302.652344 C 196.675781 303.519531 196.910156 304.449219 197.378906 305.238281 C 198.179688 306.574219 199.484375 306.667969 200.636719 305.648438 C 201.730469 304.671875 202.109375 303.367188 202.253906 302.007812 C 202.386719 300.75 201.667969 299.675781 200.523438 299.199219 C 199.539062 298.789062 198.609375 298.855469 197.765625 299.617188 C 196.878906 300.417969 196.515625 301.402344 196.335938 302.652344 Z M 108.464844 246.078125 C 108.464844 245.746094 108.496094 245.414062 108.457031 245.085938 C 108.320312 243.828125 107.316406 242.757812 105.992188 242.429688 C 105.019531 242.183594 103.765625 242.675781 103.113281 243.636719 C 102.4375 244.636719 102.316406 245.746094 102.667969 246.90625 C 103.289062 248.9375 104.632812 250.0625 106.140625 249.8125 C 107.679688 249.554688 108.484375 248.273438 108.464844 246.078125 Z M 175.5625 269.140625 C 175.882812 269.695312 176.339844 270.878906 177.125 271.777344 C 178.152344 272.953125 179.867188 272.753906 180.71875 271.429688 C 181.214844 270.65625 181.5 269.714844 181.726562 268.8125 C 182.234375 266.777344 180.65625 264.996094 178.90625 264.90625 C 177.054688 264.804688 175.507812 266.445312 175.5625 269.140625 Z M 222.367188 257.707031 C 221.882812 257.847656 221.378906 257.945312 220.917969 258.140625 C 218.925781 258.980469 218.308594 260.777344 218.070312 262.664062 C 217.875 264.191406 219.308594 265.507812 220.644531 265.292969 C 222.730469 264.960938 224.734375 262.964844 225.058594 260.898438 C 225.308594 259.324219 224.011719 257.820312 222.367188 257.707031 Z M 191.226562 296.496094 C 191.226562 296.238281 191.25 295.976562 191.222656 295.722656 C 191.042969 293.902344 189.46875 292.515625 187.996094 292.871094 C 184.632812 293.675781 182.84375 298.308594 184.800781 301.140625 C 185.503906 302.160156 186.492188 302.488281 187.6875 302.101562 C 189.699219 301.457031 191.226562 299.035156 191.226562 296.496094 Z M 126.296875 285.691406 C 124.230469 285.695312 122.585938 286.417969 121.382812 287.972656 C 120.117188 289.613281 120.136719 292.445312 122.957031 293.285156 C 125.878906 294.152344 128.789062 291.917969 129.609375 289.8125 C 130.007812 288.789062 130.015625 287.707031 129.167969 286.832031 C 128.359375 285.996094 127.367188 285.578125 126.296875 285.691406 Z M 223.335938 299.496094 C 223.339844 297.871094 221.984375 296.8125 220.257812 297.335938 C 219.632812 297.519531 219.03125 297.839844 218.488281 298.195312 C 216.027344 299.800781 214.640625 302.1875 213.738281 304.902344 C 213.332031 306.128906 214.386719 307.421875 215.652344 307.121094 C 217.660156 306.644531 219.660156 306.023438 220.992188 304.273438 C 222.046875 302.886719 223.394531 301.628906 223.335938 299.496094 Z M 132.800781 308.457031 C 133.019531 309.964844 134.167969 311.863281 135.59375 313.527344 C 136.421875 314.496094 137.597656 315.242188 138.75 315.835938 C 139.78125 316.367188 140.992188 316.144531 141.800781 315.25 C 142.542969 314.429688 142.691406 313.375 142.371094 312.253906 C 141.390625 308.863281 138.664062 307.109375 135.871094 305.558594 C 134.230469 304.644531 132.800781 305.777344 132.800781 308.457031 Z M 144.453125 271.863281 C 144.46875 274.089844 144.902344 276.179688 146.054688 278.097656 C 146.804688 279.339844 148.28125 280.3125 149.257812 280.09375 C 150.78125 279.757812 151.734375 278.757812 151.945312 277.242188 C 152.425781 273.859375 151.277344 270.785156 149.777344 267.863281 C 149.300781 266.933594 148.316406 266.296875 147.082031 266.601562 C 145.75 266.933594 145.03125 267.859375 144.777344 269.140625 C 144.601562 270.035156 144.558594 270.957031 144.453125 271.863281 Z M 128.210938 255.832031 C 127.449219 256.132812 126.21875 256.515625 125.078125 257.082031 C 122.355469 258.449219 119.664062 259.867188 116.996094 261.328125 C 116.171875 261.777344 115.375 262.351562 114.71875 263.011719 C 113.890625 263.855469 113.804688 265.363281 114.363281 266.199219 C 114.890625 266.984375 116.300781 267.554688 117.320312 267.183594 C 118.296875 266.824219 119.21875 266.28125 120.109375 265.730469 C 121.101562 265.113281 121.996094 264.347656 122.992188 263.742188 C 124.15625 263.039062 125.441406 262.527344 126.566406 261.773438 C 127.921875 260.863281 129.386719 259.964844 130.390625 258.726562 C 131.5625 257.277344 130.59375 255.816406 128.210938 255.832031 Z M 176.324219 314.585938 C 172.957031 314.929688 170.550781 315.144531 168.15625 315.433594 C 167.023438 315.570312 166.222656 316.269531 166.070312 317.410156 C 165.929688 318.488281 166.507812 319.355469 167.476562 319.816406 C 168.667969 320.382812 169.898438 320.871094 171.136719 321.320312 C 173.824219 322.296875 176.582031 321.964844 179.273438 321.464844 C 181.25 321.097656 183.1875 320.40625 184.597656 318.796875 C 185.304688 317.992188 185.246094 317.265625 184.371094 316.679688 C 183.976562 316.417969 183.558594 316.125 183.113281 316.023438 C 180.554688 315.453125 177.984375 314.9375 176.324219 314.585938 Z M 157.167969 255.851562 C 157.125 255.65625 157.09375 255.121094 156.882812 254.667969 C 155.265625 251.273438 153.503906 247.976562 150.632812 245.414062 C 148.078125 243.136719 145.03125 242.144531 141.699219 241.878906 C 140.660156 241.796875 140.214844 242.425781 140.71875 243.195312 C 141.855469 244.910156 142.855469 246.757812 144.238281 248.246094 C 147.101562 251.339844 150.171875 254.238281 153.171875 257.203125 C 153.453125 257.480469 153.828125 257.683594 154.191406 257.851562 C 155.734375 258.570312 157.15625 257.757812 157.167969 255.851562 Z M 195.652344 259.933594 C 195.652344 260.339844 195.660156 260.523438 195.652344 260.707031 C 195.609375 262.382812 196.09375 263.824219 197.761719 264.464844 C 199.347656 265.070312 200.644531 264.308594 201.695312 263.171875 C 205.019531 259.578125 205.707031 255.214844 205.109375 250.570312 C 204.972656 249.515625 204.398438 248.449219 203.125 248.15625 C 201.921875 247.878906 200.796875 248.03125 200.066406 249.109375 C 199.164062 250.4375 198.257812 251.785156 197.558594 253.226562 C 196.5 255.402344 195.4375 257.613281 195.652344 259.933594 Z M 100.15625 285.328125 C 99.652344 285.511719 99.109375 285.628906 98.65625 285.898438 C 97.621094 286.515625 96.867188 288.441406 97.296875 289.804688 C 97.894531 291.714844 98.570312 293.625 99.441406 295.425781 C 100.378906 297.371094 101.589844 299.171875 103.421875 300.464844 C 106.1875 302.425781 109.144531 301.074219 109.441406 298.253906 C 109.609375 296.664062 109.347656 295.167969 108.546875 293.9375 C 106.976562 291.523438 105.214844 289.21875 103.382812 286.992188 C 102.632812 286.089844 101.53125 285.410156 100.15625 285.328125 Z M 86.738281 253.582031 C 86.886719 254.378906 87.074219 255.273438 87.222656 256.175781 C 87.726562 259.226562 88.375 262.25 89.945312 264.953125 C 90.4375 265.796875 91.191406 266.582031 92.007812 267.121094 C 92.898438 267.707031 93.785156 267.113281 93.855469 266.046875 C 93.902344 265.386719 93.894531 264.71875 93.84375 264.058594 C 93.640625 261.226562 93.765625 258.433594 94.742188 255.730469 C 95.472656 253.707031 95.558594 251.621094 95.03125 249.570312 C 94.449219 247.324219 93.710938 245.109375 92.945312 242.914062 C 92.796875 242.492188 92.207031 242.226562 91.824219 241.886719 C 91.542969 242.339844 91.105469 242.761719 91.011719 243.253906 C 90.839844 244.125 90.753906 244.945312 90.03125 245.613281 C 87.75 247.722656 87.148438 250.550781 86.738281 253.582031 Z M 201.542969 286.699219 C 201.773438 287.941406 201.90625 289.457031 202.335938 290.878906 C 203.066406 293.277344 204.953125 294.003906 207.175781 292.886719 C 209.285156 291.828125 210.414062 289.898438 211.261719 287.859375 C 212.824219 284.105469 213.09375 280.308594 210.75 276.714844 C 209.117188 274.210938 206.128906 274.226562 204.472656 276.722656 C 202.519531 279.660156 202.027344 283.039062 201.542969 286.699219 Z M 242.222656 258.019531 C 242.15625 258.007812 242.089844 257.992188 242.023438 257.976562 C 241.914062 256.179688 242.015625 254.34375 241.648438 252.601562 C 241.085938 249.917969 240.246094 247.289062 239.40625 244.675781 C 239.261719 244.230469 238.503906 243.683594 238.074219 243.71875 C 237.632812 243.75 237.089844 244.375 236.867188 244.867188 C 236.449219 245.796875 236.289062 246.84375 235.917969 247.800781 C 233.886719 253.027344 234.007812 258.449219 234.4375 263.894531 C 234.722656 267.507812 235.601562 271.070312 235.296875 274.738281 C 235.257812 275.195312 235.3125 275.753906 235.546875 276.121094 C 235.871094 276.636719 236.363281 277.289062 236.875 277.378906 C 237.273438 277.449219 238.027344 276.84375 238.234375 276.371094 C 238.714844 275.277344 238.933594 274.074219 239.296875 272.925781 C 239.859375 271.148438 240.664062 269.417969 240.984375 267.597656 C 241.550781 264.433594 241.824219 261.214844 242.222656 258.019531 Z M 250.320312 224.167969 C 250.46875 225.46875 250.660156 226.765625 250.757812 228.070312 C 250.980469 231.113281 251.164062 234.15625 251.371094 237.324219 C 252.074219 236.351562 252.75 235.390625 253.460938 234.457031 C 258.589844 227.699219 265.351562 223.609375 273.699219 222.15625 C 278.0625 221.398438 282.472656 221.234375 286.648438 222.871094 C 293.132812 225.414062 297.128906 230.117188 298.15625 237.160156 C 298.914062 242.355469 297.496094 247.144531 295.476562 251.816406 C 292.757812 258.105469 288.28125 263.03125 283.253906 267.566406 C 279.304688 271.125 275.078125 274.300781 270.644531 277.207031 C 268.589844 278.550781 266.433594 279.742188 264.308594 281.011719 C 269.199219 285.578125 269.492188 290.824219 266.785156 296.542969 C 265.25 296.472656 263.6875 296.558594 262.183594 296.296875 C 257.359375 295.460938 254.191406 292.617188 253.199219 287.820312 C 252.703125 285.410156 252.890625 282.859375 252.765625 280.375 C 252.945312 280.253906 253.109375 280.101562 253.304688 280.011719 C 257.511719 278.0625 261.695312 276.054688 265.945312 274.195312 C 271.269531 271.863281 275.996094 268.675781 280.128906 264.605469 C 280.984375 263.765625 281.644531 262.726562 282.394531 261.777344 C 282.476562 261.707031 282.558594 261.628906 282.636719 261.558594 L 282.628906 261.566406 C 283.382812 260.855469 284.25 260.226562 284.882812 259.414062 C 289.523438 253.425781 291.453125 246.691406 290.117188 239.167969 C 289.558594 236.023438 288.09375 233.328125 285.371094 231.488281 C 283.230469 230.042969 280.859375 229.257812 278.277344 229 C 273.003906 228.476562 267.949219 229.085938 263.554688 232.242188 C 261.246094 233.894531 259.207031 235.9375 257.117188 237.882812 C 255.367188 239.515625 253.710938 241.253906 252.027344 242.953125 C 251.511719 243.476562 251.019531 244.042969 251.464844 244.867188 C 251.523438 248.617188 251.660156 252.371094 251.617188 256.121094 C 251.5625 260.566406 251.394531 265.015625 251.1875 269.457031 C 251.085938 271.722656 250.777344 273.984375 250.582031 276.25 C 250.410156 278.21875 250.269531 280.195312 250.109375 282.171875 L 250.121094 282.148438 C 250.042969 282.234375 249.964844 282.316406 249.886719 282.402344 C 249.855469 282.691406 249.871094 282.996094 249.785156 283.265625 C 248.636719 286.964844 247.476562 290.65625 246.316406 294.351562 C 245.992188 294.65625 245.574219 294.90625 245.355469 295.273438 C 241.980469 300.898438 237.804688 305.890625 233.136719 310.46875 C 226.269531 317.214844 219.097656 323.585938 210.933594 328.761719 C 206.890625 331.324219 202.859375 333.902344 198.425781 335.761719 C 197.898438 335.980469 197.296875 336.101562 196.722656 336.136719 C 192.355469 336.390625 187.984375 336.617188 183.613281 336.839844 C 181.777344 336.929688 179.941406 336.996094 178.101562 337.046875 C 172.140625 337.207031 166.175781 337.472656 160.214844 337.476562 C 154.042969 337.476562 147.867188 337.222656 141.695312 337.0625 C 139.636719 337.011719 137.574219 336.960938 135.523438 336.800781 C 134.546875 336.722656 133.503906 336.570312 132.648438 336.144531 C 127.671875 333.65625 122.597656 331.324219 117.847656 328.460938 C 113.925781 326.097656 110.316406 323.183594 106.730469 320.304688 C 103.179688 317.449219 99.792969 314.378906 96.402344 311.328125 C 94.164062 309.308594 91.9375 307.257812 89.898438 305.042969 C 86.128906 300.953125 82.570312 296.675781 79.757812 291.851562 C 78.378906 289.492188 77.710938 286.851562 77.523438 284.175781 C 77.113281 278.351562 76.816406 272.511719 76.660156 266.671875 C 76.554688 262.808594 76.726562 258.9375 76.855469 255.070312 C 77.035156 249.703125 77.242188 244.339844 77.527344 238.976562 C 77.726562 235.34375 78.042969 231.71875 78.394531 228.097656 C 78.503906 226.984375 78.90625 225.898438 79.171875 224.796875 C 80.628906 225.539062 82.015625 226.539062 83.558594 226.96875 C 86.804688 227.875 90.132812 228.488281 93.429688 229.222656 C 103.230469 231.410156 113.171875 232.457031 123.183594 232.996094 C 128.515625 233.285156 133.839844 233.671875 139.175781 233.941406 C 148.335938 234.40625 157.492188 234.957031 166.660156 235.207031 C 180.492188 235.589844 194.285156 234.84375 208.058594 233.53125 C 214.765625 232.886719 221.5 232.523438 228.046875 230.785156 C 232.230469 229.675781 236.390625 228.457031 240.5625 227.289062 C 241.058594 227.179688 241.570312 227.117188 242.046875 226.957031 C 244.808594 226.039062 247.566406 225.101562 250.320312 224.167969"/></g><g clip-path="url(#b)"><path fill="#D1C2A2" d="M 206.457031 140.855469 C 206.457031 141.757812 206.382812 142.664062 206.472656 143.554688 C 206.734375 146.21875 207.382812 148.890625 206.710938 151.550781 C 206.296875 153.195312 205.84375 154.980469 204.871094 156.316406 C 202.433594 159.667969 199.640625 162.761719 197.082031 166.035156 C 194.589844 169.21875 192.613281 172.585938 192.257812 176.835938 C 191.882812 181.3125 193.359375 184.898438 196.371094 188.007812 C 196.648438 188.292969 197.085938 188.417969 197.449219 188.613281 C 197.542969 188.523438 197.636719 188.433594 197.726562 188.339844 C 197.589844 187.828125 197.4375 187.316406 197.320312 186.796875 C 197.050781 185.625 196.449219 184.394531 196.609375 183.277344 C 197.253906 178.78125 198.707031 174.566406 201.738281 171.03125 C 203.628906 168.828125 205.472656 166.585938 207.320312 164.347656 C 209.175781 162.101562 209.8125 159.421875 210.195312 156.601562 C 210.808594 152.136719 210.597656 147.792969 208.710938 143.644531 C 208.234375 142.601562 207.53125 141.667969 206.9375 140.6875 C 206.777344 140.742188 206.617188 140.800781 206.457031 140.855469 Z M 166.0625 114.699219 C 166.3125 114.804688 166.707031 114.742188 166.964844 114.609375 C 167.203125 114.488281 167.382812 114.199219 167.535156 113.953125 C 171.339844 107.957031 172.835938 101.246094 173.503906 94.308594 C 173.835938 90.875 172.949219 87.570312 171.296875 84.640625 C 169.539062 81.519531 167.375 78.613281 165.238281 75.71875 C 162.351562 71.808594 159.28125 68.027344 157.289062 63.542969 C 155.636719 59.820312 154.597656 55.953125 155.398438 51.851562 C 156.253906 47.46875 157.359375 43.152344 160.308594 39.589844 C 160.492188 39.367188 160.707031 39.082031 160.71875 38.820312 C 160.730469 38.429688 160.695312 37.828125 160.464844 37.691406 C 160.144531 37.5 159.546875 37.53125 159.199219 37.714844 C 158.761719 37.941406 158.4375 38.402344 158.105469 38.796875 C 155.101562 42.308594 152.886719 46.296875 151.414062 50.652344 C 150.65625 52.902344 150.25 55.273438 149.730469 57.601562 C 148.941406 61.144531 148.5625 64.746094 149.261719 68.328125 C 150.652344 75.472656 153.171875 82.191406 157.238281 88.289062 C 159.671875 91.929688 162.261719 95.476562 163.925781 99.578125 C 165.460938 103.375 166.992188 107.171875 166.210938 111.414062 C 166.058594 112.246094 165.863281 113.066406 165.648438 114.097656 C 165.730469 114.230469 165.839844 114.597656 166.0625 114.699219 Z M 206.542969 101.589844 C 206.542969 108.386719 204.421875 114.601562 200.726562 120.167969 C 197.195312 125.492188 193.171875 130.492188 189.371094 135.644531 C 186.445312 139.609375 183.496094 143.5625 180.636719 147.578125 C 178.675781 150.332031 176.707031 153.101562 174.992188 156.011719 C 172.046875 161.003906 170.347656 166.476562 169.261719 172.160156 C 168.3125 177.132812 169.027344 181.75 171.992188 185.917969 C 173.152344 187.546875 174.472656 189.003906 176.359375 189.878906 C 176.957031 190.15625 177.382812 190.800781 177.890625 191.277344 C 177.207031 191.464844 176.535156 191.78125 175.84375 191.824219 C 169.625 192.210938 165.625 188.804688 162.601562 183.882812 C 160.628906 180.679688 159.917969 177.066406 159.589844 173.371094 C 158.859375 165.085938 161.414062 157.617188 165.398438 150.53125 C 168.96875 144.179688 173.574219 138.585938 178.242188 133.03125 C 181.433594 129.230469 184.84375 125.582031 187.714844 121.554688 C 191.6875 115.992188 193.828125 109.605469 194.824219 102.839844 C 195.628906 97.355469 195.429688 91.925781 193.371094 86.765625 C 192.210938 83.847656 190.449219 81.164062 188.933594 78.390625 C 187.019531 74.882812 184.648438 71.707031 182.015625 68.707031 C 181.753906 68.40625 181.585938 67.660156 181.769531 67.398438 C 182.277344 66.671875 183.003906 67.121094 183.53125 67.460938 C 185.324219 68.617188 187.132812 69.761719 188.816406 71.066406 C 190.964844 72.734375 193.183594 74.371094 195.035156 76.335938 C 199.375 80.953125 202.992188 86.089844 205.109375 92.148438 C 206.171875 95.199219 206.632812 98.351562 206.542969 101.589844"/></g><path fill="#9C4A45" d="M 93.429688 229.222656 C 93.652344 229.089844 93.871094 228.871094 94.105469 228.84375 C 96.800781 228.507812 99.5 228.175781 102.203125 227.902344 C 105.277344 227.589844 108.347656 227.230469 111.429688 227.085938 C 118.015625 226.773438 124.609375 226.570312 131.199219 226.359375 C 134.773438 226.242188 138.347656 226.199219 141.921875 226.132812 C 144.722656 226.078125 147.523438 225.992188 150.324219 226 C 155.117188 226.019531 159.90625 226.183594 164.699219 226.128906 C 171.773438 226.054688 178.847656 225.796875 185.917969 225.699219 C 193.585938 225.59375 201.257812 225.464844 208.921875 225.582031 C 214.476562 225.664062 220.027344 226.128906 225.574219 226.417969 C 229.800781 226.636719 234.03125 226.839844 238.257812 227.066406 C 239.027344 227.105469 239.792969 227.210938 240.5625 227.289062 C 236.390625 228.457031 232.230469 229.675781 228.046875 230.785156 C 221.5 232.523438 214.765625 232.886719 208.058594 233.53125 C 194.285156 234.84375 180.492188 235.589844 166.660156 235.207031 C 157.492188 234.957031 148.335938 234.40625 139.175781 233.941406 C 133.839844 233.671875 128.515625 233.285156 123.183594 232.996094 C 113.171875 232.457031 103.230469 231.410156 93.429688 229.222656"/><path fill="#E3E5E3" d="M 193.507812 279.46875 C 193.445312 279.109375 193.425781 278.738281 193.3125 278.394531 C 193.0625 277.648438 192.421875 277.226562 191.777344 277.582031 C 191.324219 277.832031 191.097656 278.566406 190.886719 279.128906 C 190.808594 279.339844 190.972656 279.757812 191.164062 279.933594 C 191.667969 280.40625 192.25 280.796875 192.800781 281.222656 C 193.09375 280.679688 193.386719 280.136719 193.679688 279.597656 C 193.621094 279.550781 193.566406 279.511719 193.507812 279.46875 Z M 92.664062 278.308594 C 91.125 278.269531 89.582031 278.175781 88.046875 278.230469 C 87.710938 278.246094 87.394531 278.800781 87.070312 279.101562 C 87.414062 279.378906 87.722656 279.804688 88.109375 279.894531 C 88.660156 280.023438 89.304688 280.03125 89.847656 279.871094 C 90.832031 279.578125 92.007812 279.628906 92.710938 278.699219 C 92.695312 278.570312 92.679688 278.4375 92.664062 278.308594 Z M 152.277344 320.957031 C 151.539062 321.292969 150.960938 321.882812 151.226562 322.785156 C 151.472656 323.632812 152.222656 323.851562 153 323.730469 C 153.535156 323.648438 154.046875 323.394531 154.546875 323.164062 C 155.289062 322.824219 155.828125 322.175781 155.519531 321.421875 C 155.328125 320.96875 154.546875 320.757812 154.203125 320.539062 C 153.34375 320.714844 152.765625 320.734375 152.277344 320.957031 Z M 215.164062 245.097656 C 215.09375 245.523438 215.359375 246.273438 215.699219 246.441406 C 216.726562 246.953125 217.84375 247.296875 218.957031 247.585938 C 219.21875 247.652344 219.726562 247.316406 219.886719 247.035156 C 220.007812 246.820312 219.847656 246.320312 219.648438 246.078125 C 218.820312 245.050781 217.6875 244.59375 216.042969 244.480469 C 215.875 244.585938 215.210938 244.792969 215.164062 245.097656 Z M 240.914062 287.347656 C 240.941406 287.113281 240.5625 286.65625 240.308594 286.605469 C 239.308594 286.398438 236.925781 287.558594 236.5 288.464844 C 236.320312 288.851562 236.261719 289.410156 236.402344 289.792969 C 236.507812 290.074219 237.03125 290.199219 237.21875 290.3125 C 238.328125 290.28125 240.8125 288.257812 240.914062 287.347656 Z M 101.617188 257.984375 C 101.597656 259.054688 102.988281 260.285156 104.191406 260.226562 C 104.929688 260.1875 105.492188 259.839844 105.496094 259.027344 C 105.5 257.746094 104.246094 256.480469 103.046875 256.492188 C 102.210938 256.5 101.632812 257.101562 101.617188 257.984375 Z M 118.554688 244.171875 C 117.714844 243.871094 117.054688 244.359375 116.859375 244.992188 C 116.582031 245.894531 116.453125 246.933594 116.613281 247.855469 C 116.785156 248.871094 117.855469 249.082031 118.523438 248.277344 C 119.054688 247.632812 119.363281 246.8125 119.773438 246.066406 C 119.582031 245.144531 119.398438 244.472656 118.554688 244.171875 Z M 226.363281 280.015625 C 226.363281 280.464844 226.296875 280.929688 226.378906 281.363281 C 226.582031 282.4375 226.839844 283.5 227.09375 284.5625 C 227.253906 285.226562 227.398438 285.902344 227.636719 286.539062 C 227.890625 287.214844 228.445312 287.789062 229.132812 287.351562 C 229.511719 287.113281 229.578125 286.320312 229.695312 285.761719 C 229.738281 285.550781 229.539062 285.285156 229.425781 285.054688 C 228.648438 283.496094 227.863281 281.9375 227.074219 280.382812 C 226.996094 280.230469 226.847656 280.117188 226.730469 279.984375 C 226.609375 279.992188 226.488281 280.003906 226.363281 280.015625 Z M 143.902344 296.121094 C 144.171875 296.421875 145.050781 296.5625 145.363281 296.347656 C 145.75 296.085938 146.089844 295.339844 146.011719 294.878906 C 145.875 294.078125 145.542969 293.210938 145.015625 292.609375 C 144.644531 292.183594 143.796875 291.953125 143.203125 292.019531 C 142.875 292.054688 142.636719 292.882812 142.242188 293.558594 C 142.8125 294.472656 143.253906 295.390625 143.902344 296.121094 Z M 169.046875 263.9375 C 168.75 263.03125 167.96875 262.535156 167.179688 262.765625 C 166.566406 262.941406 165.851562 263.65625 165.6875 264.269531 C 165.527344 264.859375 165.898438 265.699219 166.253906 266.292969 C 166.617188 266.890625 167.175781 267.488281 168.078125 267.113281 C 168.929688 266.761719 169.296875 266.109375 169.339844 265.039062 C 169.269531 264.78125 169.179688 264.351562 169.046875 263.9375 Z M 119.007812 310.15625 C 118.613281 310.355469 118.179688 311.269531 118.332031 311.566406 C 118.550781 312 119.328125 312.457031 119.792969 312.390625 C 120.9375 312.226562 122.074219 311.851562 123.136719 311.386719 C 123.671875 311.15625 124.039062 310.542969 124.691406 309.898438 C 122.457031 309.066406 120.679688 309.308594 119.007812 310.15625 Z M 166.0625 286.902344 C 165.757812 287.261719 165.550781 287.949219 165.6875 288.355469 C 165.796875 288.683594 166.484375 288.957031 166.9375 288.992188 C 168.683594 289.128906 170.738281 287.5 171.242188 285.625 C 170.019531 285.015625 167.082031 285.703125 166.0625 286.902344 Z M 188.679688 241.1875 C 188.386719 240.390625 187.671875 240.070312 187.007812 240.386719 C 186.523438 240.613281 185.980469 241.335938 185.988281 241.828125 C 186.003906 242.816406 186.308594 243.820312 186.625 244.777344 C 186.910156 245.644531 187.621094 246.359375 188.527344 245.984375 C 189.066406 245.761719 189.335938 244.878906 189.734375 244.277344 C 189.335938 243.097656 189.027344 242.136719 188.679688 241.1875 Z M 198.972656 316.058594 C 197.71875 316.480469 197.308594 317.34375 197.703125 318.378906 C 198.09375 319.425781 199.058594 319.480469 199.9375 319.296875 C 201.367188 318.996094 202.773438 318.566406 204.179688 318.140625 C 204.511719 318.039062 204.871094 317.808594 205.070312 317.527344 C 205.492188 316.9375 205.820312 316.28125 206.1875 315.652344 C 205.484375 315.339844 204.773438 315.027344 204.03125 314.703125 C 202.277344 315.164062 200.589844 315.511719 198.972656 316.058594 Z M 163.09375 303.546875 C 162.742188 301.773438 161.753906 300.457031 159.929688 299.9375 C 157.152344 299.144531 156.703125 299.542969 156.9375 302.390625 C 157.082031 304.15625 159.191406 306.683594 160.753906 306.289062 C 162.328125 306.28125 163.398438 305.097656 163.09375 303.546875 Z M 220.917969 258.140625 C 218.925781 258.980469 218.308594 260.777344 218.070312 262.664062 C 217.875 264.191406 219.308594 265.507812 220.644531 265.292969 C 222.730469 264.960938 224.734375 262.964844 225.058594 260.898438 C 225.308594 259.324219 224.011719 257.820312 222.367188 257.707031 C 221.882812 257.847656 221.378906 257.945312 220.917969 258.140625 Z M 191.222656 295.722656 C 191.042969 293.902344 189.46875 292.515625 187.996094 292.871094 C 184.632812 293.675781 182.84375 298.308594 184.800781 301.140625 C 185.503906 302.160156 186.492188 302.488281 187.6875 302.101562 C 189.699219 301.457031 191.226562 299.035156 191.226562 296.496094 C 191.226562 296.238281 191.25 295.976562 191.222656 295.722656 Z M 121.382812 287.972656 C 120.117188 289.613281 120.136719 292.445312 122.957031 293.285156 C 125.878906 294.152344 128.789062 291.917969 129.609375 289.8125 C 130.007812 288.789062 130.015625 287.707031 129.167969 286.832031 C 128.359375 285.996094 127.367188 285.578125 126.296875 285.691406 C 124.230469 285.695312 122.585938 286.417969 121.382812 287.972656 Z M 220.257812 297.335938 C 219.632812 297.519531 219.03125 297.839844 218.488281 298.195312 C 216.027344 299.800781 214.640625 302.1875 213.738281 304.902344 C 213.332031 306.128906 214.386719 307.421875 215.652344 307.121094 C 217.660156 306.644531 219.660156 306.023438 220.992188 304.273438 C 222.046875 302.886719 223.394531 301.628906 223.335938 299.496094 C 223.339844 297.871094 221.984375 296.8125 220.257812 297.335938 Z M 135.59375 313.527344 C 136.421875 314.496094 137.597656 315.242188 138.75 315.835938 C 139.78125 316.367188 140.992188 316.144531 141.800781 315.25 C 142.542969 314.429688 142.691406 313.375 142.371094 312.253906 C 141.390625 308.863281 138.664062 307.109375 135.871094 305.558594 C 134.230469 304.644531 132.800781 305.777344 132.800781 308.457031 C 133.019531 309.964844 134.167969 311.863281 135.59375 313.527344 Z M 146.054688 278.097656 C 146.804688 279.339844 148.28125 280.3125 149.257812 280.09375 C 150.78125 279.757812 151.734375 278.757812 151.945312 277.242188 C 152.425781 273.859375 151.277344 270.785156 149.777344 267.863281 C 149.300781 266.933594 148.316406 266.296875 147.082031 266.601562 C 145.75 266.933594 145.03125 267.859375 144.777344 269.140625 C 144.601562 270.035156 144.558594 270.957031 144.453125 271.863281 C 144.46875 274.089844 144.902344 276.179688 146.054688 278.097656 Z M 125.078125 257.082031 C 122.355469 258.449219 119.664062 259.867188 116.996094 261.328125 C 116.171875 261.777344 115.375 262.351562 114.71875 263.011719 C 113.890625 263.855469 113.804688 265.363281 114.363281 266.199219 C 114.890625 266.984375 116.300781 267.554688 117.320312 267.183594 C 118.296875 266.824219 119.21875 266.28125 120.109375 265.730469 C 121.101562 265.113281 121.996094 264.347656 122.992188 263.742188 C 124.15625 263.039062 125.441406 262.527344 126.566406 261.773438 C 127.921875 260.863281 129.386719 259.964844 130.390625 258.726562 C 131.5625 257.277344 130.59375 255.816406 128.210938 255.832031 C 127.449219 256.132812 126.21875 256.515625 125.078125 257.082031 Z M 168.15625 315.433594 C 167.023438 315.570312 166.222656 316.269531 166.070312 317.410156 C 165.929688 318.488281 166.507812 319.355469 167.476562 319.816406 C 168.667969 320.382812 169.898438 320.871094 171.136719 321.320312 C 173.824219 322.296875 176.582031 321.964844 179.273438 321.464844 C 181.25 321.097656 183.1875 320.40625 184.597656 318.796875 C 185.304688 317.992188 185.246094 317.265625 184.371094 316.679688 C 183.976562 316.417969 183.558594 316.125 183.113281 316.023438 C 180.554688 315.453125 177.984375 314.9375 176.324219 314.585938 C 172.957031 314.929688 170.550781 315.144531 168.15625 315.433594 Z M 156.882812 254.667969 C 155.265625 251.273438 153.503906 247.976562 150.632812 245.414062 C 148.078125 243.136719 145.03125 242.144531 141.699219 241.878906 C 140.660156 241.796875 140.214844 242.425781 140.71875 243.195312 C 141.855469 244.910156 142.855469 246.757812 144.238281 248.246094 C 147.101562 251.339844 150.171875 254.238281 153.171875 257.203125 C 153.453125 257.480469 153.828125 257.683594 154.191406 257.851562 C 155.734375 258.570312 157.15625 257.757812 157.167969 255.851562 C 157.125 255.65625 157.09375 255.121094 156.882812 254.667969 Z M 195.652344 260.707031 C 195.609375 262.382812 196.09375 263.824219 197.761719 264.464844 C 199.347656 265.070312 200.644531 264.308594 201.695312 263.171875 C 205.019531 259.578125 205.707031 255.214844 205.109375 250.570312 C 204.972656 249.515625 204.398438 248.449219 203.125 248.15625 C 201.921875 247.878906 200.796875 248.03125 200.066406 249.109375 C 199.164062 250.4375 198.257812 251.785156 197.558594 253.226562 C 196.5 255.402344 195.4375 257.613281 195.652344 259.933594 C 195.652344 260.339844 195.660156 260.523438 195.652344 260.707031 Z M 98.65625 285.898438 C 97.621094 286.515625 96.867188 288.441406 97.296875 289.804688 C 97.894531 291.714844 98.570312 293.625 99.441406 295.425781 C 100.378906 297.371094 101.589844 299.171875 103.421875 300.464844 C 106.1875 302.425781 109.144531 301.074219 109.441406 298.253906 C 109.609375 296.664062 109.347656 295.167969 108.546875 293.9375 C 106.976562 291.523438 105.214844 289.21875 103.382812 286.992188 C 102.632812 286.089844 101.53125 285.410156 100.15625 285.328125 C 99.652344 285.511719 99.109375 285.628906 98.65625 285.898438 Z M 87.222656 256.175781 C 87.726562 259.226562 88.375 262.25 89.945312 264.953125 C 90.4375 265.796875 91.191406 266.582031 92.007812 267.121094 C 92.898438 267.707031 93.785156 267.113281 93.855469 266.046875 C 93.902344 265.386719 93.894531 264.71875 93.84375 264.058594 C 93.640625 261.226562 93.765625 258.433594 94.742188 255.730469 C 95.472656 253.707031 95.558594 251.621094 95.03125 249.570312 C 94.449219 247.324219 93.710938 245.109375 92.945312 242.914062 C 92.796875 242.492188 92.207031 242.226562 91.824219 241.886719 C 91.542969 242.339844 91.105469 242.761719 91.011719 243.253906 C 90.839844 244.125 90.753906 244.945312 90.03125 245.613281 C 87.75 247.722656 87.148438 250.550781 86.738281 253.582031 C 86.886719 254.378906 87.074219 255.273438 87.222656 256.175781 Z M 202.335938 290.878906 C 203.066406 293.277344 204.953125 294.003906 207.175781 292.886719 C 209.285156 291.828125 210.414062 289.898438 211.261719 287.859375 C 212.824219 284.105469 213.09375 280.308594 210.75 276.714844 C 209.117188 274.210938 206.128906 274.226562 204.472656 276.722656 C 202.519531 279.660156 202.027344 283.039062 201.542969 286.699219 C 201.773438 287.941406 201.90625 289.457031 202.335938 290.878906 Z M 242.222656 258.019531 C 241.824219 261.214844 241.550781 264.433594 240.984375 267.597656 C 240.664062 269.417969 239.859375 271.148438 239.296875 272.925781 C 238.933594 274.074219 238.714844 275.277344 238.234375 276.371094 C 238.027344 276.84375 237.273438 277.449219 236.875 277.378906 C 236.363281 277.289062 235.871094 276.636719 235.546875 276.121094 C 235.3125 275.753906 235.257812 275.195312 235.296875 274.738281 C 235.601562 271.070312 234.722656 267.507812 234.4375 263.894531 C 234.007812 258.449219 233.886719 253.027344 235.917969 247.800781 C 236.289062 246.84375 236.449219 245.796875 236.867188 244.867188 C 237.089844 244.375 237.632812 243.75 238.074219 243.71875 C 238.503906 243.683594 239.261719 244.230469 239.40625 244.675781 C 240.246094 247.289062 241.085938 249.917969 241.648438 252.601562 C 242.015625 254.34375 241.914062 256.179688 242.023438 257.976562 C 242.089844 257.992188 242.15625 258.007812 242.222656 258.019531"/><path fill="#474D46" d="M 282.394531 261.777344 C 282.476562 261.707031 282.558594 261.628906 282.636719 261.558594 C 282.558594 261.628906 282.476562 261.707031 282.394531 261.777344 Z M 171.914062 245.1875 C 170.976562 245.179688 170.429688 245.78125 170.429688 246.832031 C 170.425781 247.996094 171.355469 248.953125 172.515625 248.949219 C 173.535156 248.945312 173.527344 248.195312 173.535156 247.8125 C 173.554688 245.996094 172.988281 245.195312 171.914062 245.1875 Z M 227.371094 243.71875 C 227.652344 244.300781 228.246094 244.613281 228.695312 244.082031 C 229.367188 243.304688 230.003906 242.417969 230.355469 241.464844 C 230.6875 240.570312 229.921875 239.851562 228.941406 239.871094 C 227.894531 239.894531 227.136719 240.960938 227.089844 242.757812 C 227.125 242.894531 227.183594 243.339844 227.371094 243.71875 Z M 158.761719 281.972656 C 157.855469 281.957031 156.957031 282.941406 156.929688 283.972656 C 156.902344 285.109375 157.933594 286.277344 159 286.308594 C 160.015625 286.339844 160.910156 285.40625 160.921875 284.296875 C 160.941406 283.027344 159.980469 281.992188 158.761719 281.972656 Z M 86.582031 289.167969 C 86.605469 290.191406 87.601562 291.023438 88.789062 291.015625 C 90.085938 291.007812 91.421875 290.054688 91.429688 289.132812 C 91.441406 288.210938 90.089844 287.226562 88.820312 287.234375 C 87.558594 287.242188 86.554688 288.105469 86.582031 289.167969 Z M 221.15625 284.402344 C 220.207031 284.390625 219.15625 285.585938 219.152344 286.679688 C 219.148438 288 220.191406 289.257812 221.265625 289.222656 C 222.328125 289.191406 223.121094 288.074219 223.109375 286.625 C 223.101562 285.359375 222.277344 284.417969 221.15625 284.402344 Z M 189.863281 326.550781 C 191.203125 326.589844 192.332031 325.851562 192.359375 324.921875 C 192.402344 323.703125 190.949219 322.445312 189.488281 322.4375 C 188.210938 322.425781 187.480469 323.121094 187.464844 324.359375 C 187.453125 325.539062 188.519531 326.515625 189.863281 326.550781 Z M 127.730469 240.296875 C 127.710938 241.609375 129.296875 243.132812 130.746094 243.191406 C 131.636719 243.222656 132.347656 242.464844 132.355469 241.472656 C 132.371094 240.117188 130.886719 238.558594 129.566406 238.542969 C 128.5 238.53125 127.75 239.25 127.730469 240.296875 Z M 165.519531 327.632812 C 165.550781 326.433594 164.035156 324.886719 162.8125 324.871094 C 161.574219 324.859375 160.554688 325.78125 160.527344 326.941406 C 160.503906 328.199219 161.679688 329.273438 163.105469 329.289062 C 164.339844 329.300781 165.496094 328.511719 165.519531 327.632812 Z M 104.484375 269.910156 C 104.027344 269.210938 103.246094 268.96875 102.453125 269.375 C 101.667969 269.777344 101.21875 270.515625 101.441406 271.378906 C 101.65625 272.214844 101.960938 273.125 102.515625 273.738281 C 102.953125 274.226562 103.90625 274.636719 104.484375 274.492188 C 105.035156 274.355469 105.398438 273.460938 105.925781 272.789062 C 105.386719 271.691406 105.023438 270.746094 104.484375 269.910156 Z M 115.097656 302.917969 C 115.09375 304.152344 116.191406 305.132812 117.597656 305.15625 C 118.933594 305.179688 120.355469 304.21875 120.378906 303.28125 C 120.40625 302.136719 118.742188 300.753906 117.332031 300.75 C 115.972656 300.746094 115.097656 301.59375 115.097656 302.917969 Z M 150.945312 306.089844 C 149.800781 306.105469 148.777344 307.195312 148.753906 308.425781 C 148.714844 310.078125 149.792969 311.375 151.207031 311.378906 C 152.578125 311.382812 153.390625 310.46875 153.402344 308.914062 C 153.414062 307.269531 152.375 306.074219 150.945312 306.089844 Z M 134.441406 322.628906 C 133.59375 322.210938 132.542969 322.152344 131.875 322.921875 C 131.480469 323.375 131.136719 324.402344 131.378906 324.773438 C 131.832031 325.464844 132.699219 325.917969 133.453125 326.375 C 133.773438 326.570312 134.234375 326.535156 134.636719 326.585938 C 136.203125 326.785156 137.59375 326.152344 138.15625 324.789062 C 136.894531 324.042969 135.710938 323.246094 134.441406 322.628906 Z M 245.746094 273.308594 C 244.414062 273.277344 243.105469 274.65625 243.066406 276.144531 C 243.03125 277.484375 243.890625 278.777344 244.835938 278.820312 C 246.339844 278.882812 247.890625 277.296875 247.910156 275.679688 C 247.921875 274.246094 247.097656 273.347656 245.746094 273.308594 Z M 243.121094 239.074219 C 243.972656 240.582031 245.859375 240.671875 246.503906 239.191406 C 246.855469 238.382812 246.929688 237.34375 246.808594 236.449219 C 246.601562 234.886719 245.65625 234.1875 244.382812 234.351562 C 243.234375 234.496094 242.578125 235.457031 242.445312 237.019531 C 242.660156 237.707031 242.769531 238.457031 243.121094 239.074219 Z M 122.585938 277.667969 C 122.664062 276.664062 121.339844 275.367188 119.925781 275.113281 C 118.816406 274.917969 117.683594 275.039062 117.128906 276.109375 C 116.804688 276.734375 116.703125 277.6875 116.929688 278.34375 C 117.300781 279.398438 118.324219 279.769531 119.441406 279.726562 C 120.957031 279.738281 122.503906 278.722656 122.585938 277.667969 Z M 227.308594 297.054688 C 227.300781 298.640625 228.527344 300.027344 229.949219 300.042969 C 231.183594 300.058594 232.363281 298.707031 232.382812 297.25 C 232.40625 295.722656 231.300781 294.546875 229.835938 294.539062 C 228.246094 294.53125 227.316406 295.460938 227.308594 297.054688 Z M 216.035156 254.867188 C 216.011719 253.339844 214.378906 252.035156 212.535156 252.066406 C 211.199219 252.089844 210.035156 253.261719 210.085938 254.542969 C 210.132812 255.914062 211.71875 257.15625 213.40625 257.148438 C 215.097656 257.140625 216.0625 256.304688 216.035156 254.867188 Z M 176.402344 302.796875 C 176.402344 302.429688 176.441406 302.058594 176.398438 301.695312 C 176.25 300.457031 175.328125 299.496094 174.226562 299.40625 C 172.761719 299.285156 171.925781 299.847656 171.5 301.238281 C 171.136719 302.433594 171.8125 304.066406 172.945312 304.75 C 173.804688 305.265625 174.816406 305.652344 175.617188 305.023438 C 176.179688 304.585938 176.339844 303.640625 176.683594 302.917969 C 176.589844 302.878906 176.496094 302.839844 176.402344 302.796875 Z M 220.753906 274.609375 C 221.769531 274 221.78125 273.328125 221.011719 272.417969 C 220.078125 271.316406 218.925781 270.574219 217.496094 270.292969 C 216.445312 270.089844 215.199219 270.777344 214.820312 271.78125 C 214.417969 272.832031 214.753906 274.039062 215.753906 274.566406 C 216.515625 274.96875 217.378906 275.167969 218.304688 275.496094 C 219.140625 275.203125 220.03125 275.042969 220.753906 274.609375 Z M 85.785156 239.65625 C 87.226562 239.644531 88.539062 237.992188 88.527344 236.210938 C 88.519531 234.550781 87.1875 233.03125 85.757812 233.050781 C 84.292969 233.070312 83.019531 234.601562 83.019531 236.351562 C 83.019531 238.320312 84.148438 239.671875 85.785156 239.65625 Z M 140.628906 252.28125 C 138.863281 252.105469 137.667969 252.925781 137.320312 254.628906 C 137 256.195312 137.777344 257.34375 138.929688 258.257812 C 139.714844 258.882812 140.640625 259.226562 141.605469 258.703125 C 142.734375 258.089844 143.257812 257.070312 143.207031 255.570312 C 143.207031 253.9375 142.085938 252.425781 140.628906 252.28125 Z M 197.378906 305.238281 C 198.179688 306.574219 199.484375 306.667969 200.636719 305.648438 C 201.730469 304.671875 202.109375 303.367188 202.253906 302.007812 C 202.386719 300.75 201.667969 299.675781 200.523438 299.199219 C 199.539062 298.789062 198.609375 298.855469 197.765625 299.617188 C 196.878906 300.417969 196.515625 301.402344 196.335938 302.652344 C 196.675781 303.519531 196.910156 304.449219 197.378906 305.238281 Z M 108.457031 245.085938 C 108.320312 243.828125 107.316406 242.757812 105.992188 242.429688 C 105.019531 242.183594 103.765625 242.675781 103.113281 243.636719 C 102.4375 244.636719 102.316406 245.746094 102.667969 246.90625 C 103.289062 248.9375 104.632812 250.0625 106.140625 249.8125 C 107.679688 249.554688 108.484375 248.273438 108.464844 246.078125 C 108.464844 245.746094 108.496094 245.414062 108.457031 245.085938 Z M 177.125 271.777344 C 178.152344 272.953125 179.867188 272.753906 180.71875 271.429688 C 181.214844 270.65625 181.5 269.714844 181.726562 268.8125 C 182.234375 266.777344 180.65625 264.996094 178.90625 264.90625 C 177.054688 264.804688 175.507812 266.445312 175.5625 269.140625 C 175.882812 269.695312 176.339844 270.878906 177.125 271.777344 Z M 284.882812 259.414062 C 289.523438 253.425781 291.453125 246.691406 290.117188 239.167969 C 289.558594 236.023438 288.09375 233.328125 285.371094 231.488281 C 283.230469 230.042969 280.859375 229.257812 278.277344 229 C 273.003906 228.476562 267.949219 229.085938 263.554688 232.242188 C 261.246094 233.894531 259.207031 235.9375 257.117188 237.882812 C 255.367188 239.515625 253.710938 241.253906 252.027344 242.953125 C 251.511719 243.476562 251.019531 244.042969 251.464844 244.867188 C 253.015625 243.8125 254.675781 242.886719 256.101562 241.6875 C 260.933594 237.621094 266.269531 234.742188 272.601562 233.761719 C 280.6875 232.515625 287.71875 238.382812 287.792969 246.574219 C 287.820312 249.609375 287.171875 252.523438 285.996094 255.273438 C 285.0625 257.453125 283.761719 259.476562 282.628906 261.566406 C 283.382812 260.855469 284.25 260.226562 284.882812 259.414062 Z M 247.8125 299.292969 C 249.019531 302.140625 251.230469 303.882812 254.335938 304.238281 C 259.070312 304.78125 265.039062 301.039062 266.785156 296.542969 C 265.25 296.472656 263.6875 296.558594 262.183594 296.296875 C 257.359375 295.460938 254.191406 292.617188 253.199219 287.820312 C 252.703125 285.410156 252.890625 282.859375 252.765625 280.375 C 251.882812 280.972656 250.996094 281.574219 250.109375 282.171875 L 250.121094 282.148438 C 250.042969 282.234375 249.964844 282.316406 249.886719 282.402344 C 249.855469 282.691406 249.871094 282.996094 249.785156 283.265625 C 248.636719 286.964844 247.476562 290.65625 246.316406 294.351562 C 246.804688 296 247.148438 297.714844 247.8125 299.292969 Z M 250.320312 224.167969 C 247.566406 225.101562 244.808594 226.039062 242.046875 226.957031 C 241.570312 227.117188 241.058594 227.179688 240.5625 227.289062 C 239.792969 227.210938 239.027344 227.105469 238.257812 227.066406 C 234.03125 226.839844 229.800781 226.636719 225.574219 226.417969 C 220.027344 226.128906 214.476562 225.664062 208.921875 225.582031 C 201.257812 225.464844 193.585938 225.59375 185.917969 225.699219 C 178.847656 225.796875 171.773438 226.054688 164.699219 226.128906 C 159.90625 226.183594 155.117188 226.019531 150.324219 226 C 147.523438 225.992188 144.722656 226.078125 141.921875 226.132812 C 138.347656 226.199219 134.773438 226.242188 131.199219 226.359375 C 124.609375 226.570312 118.015625 226.773438 111.429688 227.085938 C 108.347656 227.230469 105.277344 227.589844 102.203125 227.902344 C 99.5 228.175781 96.800781 228.507812 94.105469 228.84375 C 93.871094 228.871094 93.652344 229.089844 93.429688 229.222656 C 90.132812 228.488281 86.804688 227.875 83.558594 226.96875 C 82.015625 226.539062 80.628906 225.539062 79.171875 224.796875 C 80.085938 224.140625 80.914062 223.238281 81.929688 222.871094 C 86.117188 221.367188 90.304688 219.8125 94.59375 218.667969 C 104.285156 216.082031 114.167969 214.453125 124.15625 213.535156 C 131.921875 212.816406 139.707031 212.140625 147.5 211.789062 C 156.148438 211.394531 164.8125 211.207031 173.46875 211.253906 C 181.679688 211.300781 189.902344 211.59375 198.097656 212.089844 C 206.179688 212.582031 214.238281 213.496094 222.308594 214.160156 C 228.011719 214.628906 233.695312 215.21875 239.175781 216.910156 C 241.96875 217.769531 244.683594 218.957031 247.339844 220.195312 C 248.941406 220.941406 250.03125 222.316406 250.320312 224.167969"/></svg>